HIERARCHY
ROOT Hips
{
	OFFSET 0.00000 0.00000 0.00000
	CHANNELS 6 Xposition Yposition Zposition Zrotation Yrotation Xrotation 
	JOINT LHipJoint
	{
		OFFSET 0 0 0
		CHANNELS 3 Zrotation Yrotation Xrotation
		JOINT LeftUpLeg
		{
			OFFSET 1.17584 -1.63585 1.00361
			CHANNELS 3 Zrotation Yrotation Xrotation
			JOINT LeftLeg
			{
				OFFSET 2.23889 -6.15131 0.00000
				CHANNELS 3 Zrotation Yrotation Xrotation
				JOINT LeftFoot
				{
					OFFSET 2.65161 -7.28525 0.00000
					CHANNELS 3 Zrotation Yrotation Xrotation
					JOINT LeftToeBase
					{
						OFFSET 0.24898 -0.68407 1.57235
						CHANNELS 3 Zrotation Yrotation Xrotation
						End Site
						{
							OFFSET 0.00000 -0.00000 0.85838
						}
					}
				}
			}
		}
	}
	JOINT RHipJoint
	{
		OFFSET 0 0 0
		CHANNELS 3 Zrotation Yrotation Xrotation
		JOINT RightUpLeg
		{
			OFFSET -1.15592 -1.63585 1.00361
			CHANNELS 3 Zrotation Yrotation Xrotation
			JOINT RightLeg
			{
				OFFSET -2.34071 -6.43104 0.00000
				CHANNELS 3 Zrotation Yrotation Xrotation
				JOINT RightFoot
				{
					OFFSET -2.59113 -7.11908 0.00000
					CHANNELS 3 Zrotation Yrotation Xrotation
					JOINT RightToeBase
					{
						OFFSET -0.17867 -0.49089 1.70981
						CHANNELS 3 Zrotation Yrotation Xrotation
						End Site
						{
							OFFSET -0.00000 -0.00000 0.89861
						}
					}
				}
			}
		}
	}
	JOINT LowerBack
	{
		OFFSET 0 0 0
		CHANNELS 3 Zrotation Yrotation Xrotation
		JOINT Spine
		{
			OFFSET -0.02255 1.90764 -0.16605
			CHANNELS 3 Zrotation Yrotation Xrotation
			JOINT Spine1
			{
				OFFSET -0.00365 1.92150 -0.04898
				CHANNELS 3 Zrotation Yrotation Xrotation
				JOINT Neck
				{
					OFFSET 0 0 0
					CHANNELS 3 Zrotation Yrotation Xrotation
					JOINT Neck1
					{
						OFFSET 0.00372 1.59170 0.08694
						CHANNELS 3 Zrotation Yrotation Xrotation
						JOINT Head
						{
							OFFSET 0.12558 1.58643 -0.08078
							CHANNELS 3 Zrotation Yrotation Xrotation
							End Site
							{
								OFFSET 0.04211 1.60835 -0.03803
							}
						}
					}
				}
				JOINT LeftShoulder
				{
					OFFSET 0 0 0
					CHANNELS 3 Zrotation Yrotation Xrotation
					JOINT LeftArm
					{
						OFFSET 3.69324 0.96316 0.19077
						CHANNELS 3 Zrotation Yrotation Xrotation
						JOINT LeftForeArm
						{
							OFFSET 4.87796 -0.00000 -0.00000
							CHANNELS 3 Zrotation Yrotation Xrotation
							JOINT LeftHand
							{
								OFFSET 3.23169 -0.00000 0.00000
								CHANNELS 3 Zrotation Yrotation Xrotation
								JOINT LeftFingerBase
								{
									OFFSET 0 0 0
									CHANNELS 3 Zrotation Yrotation Xrotation
									JOINT LeftHandIndex1
									{
										OFFSET 0.73132 -0.00000 0.00000
										CHANNELS 3 Zrotation Yrotation Xrotation
										End Site
										{
											OFFSET 0.58961 -0.00000 0.00000
										}
									}
								}
								JOINT LThumb
								{
									OFFSET 0 0 0
									CHANNELS 3 Zrotation Yrotation Xrotation
									End Site
									{
										OFFSET 0.59861 -0.00000 0.59861
									}
								}
							}
						}
					}
				}
				JOINT RightShoulder
				{
					OFFSET 0 0 0
					CHANNELS 3 Zrotation Yrotation Xrotation
					JOINT RightArm
					{
						OFFSET -3.66103 0.75145 0.08281
						CHANNELS 3 Zrotation Yrotation Xrotation
						JOINT RightForeArm
						{
							OFFSET -4.91430 -0.00000 0.00000
							CHANNELS 3 Zrotation Yrotation Xrotation
							JOINT RightHand
							{
								OFFSET -3.29093 -0.00000 0.00000
								CHANNELS 3 Zrotation Yrotation Xrotation
								JOINT RightFingerBase
								{
									OFFSET 0 0 0
									CHANNELS 3 Zrotation Yrotation Xrotation
									JOINT RightHandIndex1
									{
										OFFSET -0.54512 -0.00000 0.00000
										CHANNELS 3 Zrotation Yrotation Xrotation
										End Site
										{
											OFFSET -0.43949 -0.00000 0.00000
										}
									}
								}
								JOINT RThumb
								{
									OFFSET 0 0 0
									CHANNELS 3 Zrotation Yrotation Xrotation
									End Site
									{
										OFFSET -0.44620 -0.00000 0.44620
									}
								}
							}
						}
					}
				}
			}
		}
	}
}
MOTION
Frames: 7
Frame Time: .0083333
15.7117 16.5042 1.316 0 0 0 0 0 0 -21 0 0 0 0 0 0 0 0 0 0 0 0 0 0 21 0 0 0 0 0 0 0 0 0 0 0 0 0 0 0 0 0 0 0 0 0 0 -16 0 0 21 0 0 11 0 0 0 -8 0 0 0 0 0 0 0 0 0 0 0 0 0 0 0 0 0 0 0 0 8 0 0 0 0 0 0 0 0 0 0 0 0 0 0 0 0 0
15.7117 16.5042 1.3160 122.6440 -88.6037 -123.2930 0.0000 0.0000 0.0000 -11.8813 -0.2971 -9.6482 2.1445 9.1607 26.2993 1.1600 10.4085 -26.5593 2.2049 -9.2804 -26.6765 0.0000 0.0000 0.0000 11.7942 6.6031 -9.4033 -3.1582 -10.9469 32.1009 -0.6645 -11.7661 -23.8047 -0.6493 5.1544 -14.3494 -2.1455 -0.5821 -7.7055 -0.9560 -0.4968 2.8018 0.1324 -0.3231 7.2833 -1.7521 -0.3182 -3.0238 4.0084 -0.8209 10.0223 1.6045 -0.3540 3.8333 0.0000 0.0000 0.0000 -83.1416 -2.1732 37.5285 35.1939 -44.9501 -14.9502 -0.0000 -0.0000 13.8014 32.0507 -33.9490 -19.2721 -7.1250 0.0000 -0.0000 -0.3092 -8.4792 0.3514 0.0000 0.0000 0.0000 85.0404 2.8166 44.5949 -33.0288 43.3521 -13.4418 0.0000 0.0000 16.0564 -38.4254 -23.0410 17.2492 7.1250 -0.0000 -0.0000 -10.7925 -58.1510 3.4991
15.7102 16.5046 1.3164 121.8670 -88.4582 -122.5200 0.0000 0.0000 0.0000 -12.0462 -0.3185 -9.6115 2.1431 9.1581 26.2910 1.1750 10.4169 -26.6785 2.0900 -9.0510 -25.9549 0.0000 0.0000 0.0000 11.6169 6.5432 -9.4472 -3.1552 -10.9421 32.0849 -0.6533 -11.7447 -23.6857 -0.6760 5.2574 -14.6443 -2.1625 -0.5147 -7.7032 -1.0835 -0.3971 2.8263 0.0217 -0.2728 7.3055 -1.6671 -0.3023 -3.1640 4.1634 -0.8189 10.0175 1.6424 -0.3417 3.8601 0.0000 0.0000 0.0000 -82.9319 -2.1578 37.6523 35.3008 -45.0257 -15.0257 -0.0000 -0.0000 13.6983 31.7544 -33.8257 -19.0107 -7.1250 0.0000 -0.0000 -0.4415 -8.2592 0.5003 0.0000 0.0000 0.0000 85.2264 2.8224 44.4234 -33.0778 43.3897 -13.4755 0.0000 0.0000 16.0608 -38.4046 -22.6799 16.9962 7.1250 -0.0000 -0.0000 -10.7766 -57.7239 3.3828
15.7089 16.5051 1.3154 122.6030 -88.4883 -123.2510 0.0000 0.0000 0.0000 -11.9987 -0.3217 -9.6049 2.1456 9.1631 26.3067 1.1970 10.3206 -26.7634 2.0630 -8.9960 -25.7829 0.0000 0.0000 0.0000 11.6731 6.6425 -9.4006 -3.1536 -10.9396 32.0764 -0.6566 -11.7754 -23.7456 -0.6461 5.1422 -14.3145 -2.1072 -0.4870 -7.7060 -1.0847 -0.3661 2.7954 -0.0060 -0.2544 7.2731 -1.5227 -0.3001 -3.0425 4.0849 -0.8202 10.0117 1.5890 -0.3422 3.8318 -0.0000 -0.0000 0.0000 -82.9043 -2.0886 37.7174 35.3286 -45.0454 -15.0454 -0.0000 -0.0000 13.6977 31.7403 -33.8656 -19.0193 -7.1250 0.0000 -0.0000 -0.4582 -8.2969 0.5195 -0.0000 -0.0000 0.0000 85.2532 2.7479 44.3267 -33.0857 43.3958 -13.4809 0.0000 0.0000 16.1020 -38.3898 -22.8181 17.0801 7.1250 -0.0000 -0.0000 -10.7551 -57.8816 3.4169
15.7085 16.5037 1.3146 124.9650 -88.5696 -125.6370 0.0000 0.0000 0.0000 -11.8786 -0.2867 -9.6024 2.1472 9.1663 26.3168 1.1865 10.3373 -26.6989 2.1183 -9.1082 -26.1344 0.0000 0.0000 0.0000 11.7876 6.5826 -9.3900 -3.1528 -10.9384 32.0724 -0.6612 -11.7246 -23.7346 -0.6544 5.1742 -14.4061 -1.9798 -0.4563 -7.6855 -1.0778 -0.3389 2.8267 -0.0667 -0.2356 7.2931 -1.5106 -0.3277 -3.1693 4.1200 -0.8632 10.0726 1.5983 -0.3598 3.8801 0.0000 0.0000 0.0000 -82.8423 -2.1274 37.8130 35.3594 -45.0671 -15.0672 -0.0000 -0.0000 13.6367 31.6790 -33.8486 -18.9693 -7.1250 0.0000 -0.0000 -0.4875 -8.2604 0.5525 0.0000 0.0000 0.0000 85.3025 2.7870 44.2553 -33.0807 43.3920 -13.4775 0.0000 0.0000 16.0675 -38.3593 -23.0513 17.2177 7.1250 -0.0000 -0.0000 -10.7111 -58.1459 3.4710
15.7076 16.5035 1.3138 126.3190 -88.5997 -127.0000 0.0000 0.0000 0.0000 -11.8244 -0.2688 -9.6056 2.1507 9.1731 26.3385 1.1870 10.3290 -26.6962 2.1257 -9.1232 -26.1814 0.0000 0.0000 0.0000 11.8394 6.5629 -9.3803 -3.1512 -10.9358 32.0637 -0.6622 -11.7101 -23.7286 -0.6579 5.1878 -14.4449 -1.9104 -0.4315 -7.6748 -1.0853 -0.3127 2.8379 -0.1099 -0.2195 7.2978 -1.4414 -0.3253 -3.2275 4.1138 -0.8654 10.1084 1.5844 -0.3577 3.9035 -0.0000 -0.0000 0.0000 -82.7819 -2.1292 37.8819 35.3937 -45.0912 -15.0915 -0.0000 -0.0000 13.5882 31.6552 -33.8508 -18.9539 -7.1250 0.0000 -0.0000 -0.5009 -8.2556 0.5677 -0.0000 -0.0000 0.0000 85.3507 2.7960 44.2002 -33.0785 43.3902 -13.4759 0.0000 0.0000 16.0293 -38.3353 -23.1740 17.2852 7.1250 -0.0000 -0.0000 -10.6779 -58.2827 3.4953
15.7067 16.5034 1.3130 127.8470 -88.6401 -128.5360 0.0000 0.0000 0.0000 -11.7578 -0.2458 -9.6124 2.1535 9.1788 26.3561 1.1843 10.3281 -26.6753 2.1381 -9.1480 -26.2595 0.0000 0.0000 0.0000 11.9043 6.5414 -9.3741 -3.1506 -10.9350 32.0608 -0.6639 -11.6964 -23.7306 -0.6605 5.1980 -14.4741 -1.8440 -0.4168 -7.6684 -1.0794 -0.3004 2.8498 -0.1393 -0.2106 7.3062 -1.3710 -0.3187 -3.2983 4.0810 -0.8600 10.1620 1.5618 -0.3527 3.9351 -0.0000 -0.0000 0.0000 -82.7423 -2.1359 37.9291 35.4190 -45.1090 -15.1094 -0.0000 -0.0000 13.5514 31.6809 -33.8583 -18.9750 -7.1250 0.0000 -0.0000 -0.4887 -8.2712 0.5540 -0.0000 -0.0000 0.0000 85.3808 2.8136 44.1772 -33.0670 43.3815 -13.4681 0.0000 0.0000 15.9781 -38.3035 -23.2967 17.3478 7.1250 -0.0000 -0.0000 -10.6347 -58.4175 3.5155
